<svg width="40" height="40" viewBox="0 0 40 40" fill="none" xmlns="http://www.w3.org/2000/svg">
<rect x="0.5" y="0.5" width="39" height="39" rx="9.5" stroke="black"/>
<g clip-path="url(#clip0_913_7505)">
<path d="M19.9155 18.2333C20.9821 18.2333 21.8888 17.8511 22.6355 17.0867C23.3821 16.3222 23.7555 15.4067 23.7555 14.34C23.7555 13.2733 23.3821 12.3667 22.6355 11.62C21.8888 10.8733 20.9821 10.5 19.9155 10.5C18.8488 10.5 17.9421 10.8733 17.1955 11.62C16.4488 12.3667 16.0755 13.2733 16.0755 14.34C16.0755 15.4067 16.4488 16.3222 17.1955 17.0867C17.9421 17.8511 18.8488 18.2333 19.9155 18.2333ZM17.8355 12.3133C18.4044 11.7444 19.0888 11.46 19.8888 11.46C20.6888 11.46 21.3821 11.7444 21.9688 12.3133C22.5555 12.8822 22.8488 13.5667 22.8488 14.3667C22.8488 15.1667 22.5644 15.8511 21.9955 16.42C21.4266 16.9889 20.7332 17.2733 19.9155 17.2733C19.0977 17.2733 18.4044 16.9889 17.8355 16.42C17.2666 15.8511 16.9821 15.1667 16.9821 14.3667C16.9821 13.5667 17.2666 12.8822 17.8355 12.3133ZM26.6355 22.82C26.6355 22.5 26.5999 22.1533 26.5288 21.78C26.4577 21.4067 26.3688 21.0689 26.2621 20.7667C26.1555 20.4644 26.0132 20.1533 25.8355 19.8333C25.6577 19.5133 25.4532 19.2378 25.2221 19.0067C24.991 18.7756 24.6977 18.5889 24.3421 18.4467C23.9866 18.3044 23.5955 18.2333 23.1688 18.2333C23.0266 18.2333 22.8132 18.3222 22.5288 18.5L21.8888 18.9267C21.6755 19.0689 21.391 19.1933 21.0355 19.3C20.6799 19.4067 20.3332 19.46 19.9955 19.46C19.6577 19.46 19.311 19.4067 18.9555 19.3C18.5999 19.1933 18.3332 19.0689 18.1555 18.9267L17.4621 18.5C17.2132 18.3222 17.0177 18.2333 16.8755 18.2333C16.4488 18.2333 16.0577 18.3044 15.7021 18.4467C15.3466 18.5889 15.0444 18.7756 14.7955 19.0067C14.5466 19.2378 14.3332 19.5133 14.1555 19.8333C13.9777 20.1533 13.8355 20.4733 13.7288 20.7933C13.6221 21.1133 13.5421 21.4511 13.4888 21.8067C13.4355 22.1622 13.3999 22.4911 13.3821 22.7933C13.3644 23.0956 13.3555 23.4067 13.3555 23.7267C13.3555 24.58 13.6132 25.2556 14.1288 25.7533C14.6444 26.2511 15.3288 26.5 16.1821 26.5H23.8621C24.6799 26.5 25.3555 26.2511 25.8888 25.7533C26.4221 25.2556 26.6888 24.58 26.6888 23.7267C26.6888 23.4067 26.671 23.1044 26.6355 22.82ZM25.2488 25.06C24.8932 25.38 24.431 25.54 23.8621 25.54H16.1821C15.5777 25.54 15.1066 25.38 14.7688 25.06C14.431 24.74 14.2621 24.2956 14.2621 23.7267L14.3155 22.8733C14.3155 22.5889 14.351 22.2867 14.4221 21.9667C14.4932 21.6467 14.5644 21.3533 14.6355 21.0867C14.7066 20.82 14.8132 20.5622 14.9555 20.3133C15.0977 20.0644 15.2577 19.86 15.4355 19.7C15.6132 19.54 15.8177 19.4156 16.0488 19.3267C16.2799 19.2378 16.5199 19.1933 16.7688 19.1933L17.6221 19.7267C17.9066 19.9044 18.2621 20.0556 18.6888 20.18C19.1155 20.3044 19.551 20.3667 19.9955 20.3667C20.4399 20.3667 20.8844 20.3044 21.3288 20.18C21.7732 20.0556 22.1199 19.9044 22.3688 19.7267L23.2221 19.1933C23.5066 19.1933 23.7644 19.2378 23.9955 19.3267C24.2266 19.4156 24.4221 19.54 24.5821 19.7C24.7421 19.86 24.8932 20.0644 25.0355 20.3133C25.1777 20.5622 25.2932 20.82 25.3821 21.0867C25.471 21.3533 25.5421 21.6467 25.5955 21.9667C25.6488 22.2867 25.6932 22.5889 25.7288 22.8733V23.7267C25.7288 24.2956 25.5688 24.74 25.2488 25.06Z" fill="black"/>
</g>
<defs>
<clipPath id="clip0_913_7505">
<rect width="15.95" height="16" fill="white" transform="matrix(1 0 0 -1 12.0195 26.5)"/>
</clipPath>
</defs>
</svg>
